<svg width="20" height="21" viewBox="0 0 20 21" fill="none" xmlns="http://www.w3.org/2000/svg"><path d="M9.994.667c2.715 0 3.055.012 4.121.06 1.064.05 1.79.218 2.428.466a4.9 4.9 0 0 1 1.77 1.152 4.9 4.9 0 0 1 1.155 1.771c.245.636.414 1.364.464 2.428.048 1.067.06 1.408.06 4.123s-.012 3.056-.06 4.122c-.05 1.065-.218 1.792-.464 2.428a4.9 4.9 0 0 1-1.154 1.771 4.9 4.9 0 0 1-1.77 1.154c-.636.247-1.364.416-2.428.465-1.066.048-1.406.06-4.12.06-2.716 0-3.057-.012-4.123-.06-1.064-.05-1.79-.218-2.427-.465a4.9 4.9 0 0 1-1.77-1.154 4.9 4.9 0 0 1-1.154-1.771c-.247-.636-.414-1.363-.463-2.428-.049-1.066-.061-1.406-.061-4.122S.01 7.61.058 6.543c.048-1.064.217-1.79.464-2.427a4.9 4.9 0 0 1 1.155-1.771 4.9 4.9 0 0 1 1.77-1.152C4.083.945 4.81.777 5.874.728 6.94.679 7.281.668 9.994.668m-.895 1.8c-1.863.002-2.22.014-3.143.056-.975.045-1.504.207-1.856.344-.467.182-.8.4-1.15.75s-.567.682-.748 1.149c-.137.352-.3.882-.345 1.857-.047 1.054-.057 1.37-.057 4.04s.01 2.986.057 4.04c.045.975.208 1.505.345 1.857.182.467.398.8.748 1.15s.683.566 1.15.747c.352.137.881.3 1.856.345 1.054.048 1.37.059 4.04.059s2.986-.011 4.04-.059c.974-.045 1.504-.207 1.856-.345.466-.181.8-.398 1.149-.748.35-.35.567-.682.748-1.148.137-.352.3-.882.344-1.857.048-1.054.058-1.37.058-4.039s-.01-2.986-.058-4.04c-.045-.975-.207-1.504-.344-1.856a3.1 3.1 0 0 0-.748-1.15 3.1 3.1 0 0 0-1.15-.748c-.352-.136-.88-.3-1.855-.344-1.054-.048-1.37-.058-4.04-.058H9.1zm.897 3.064c2.835 0 5.133 2.3 5.133 5.136a5.134 5.134 0 1 1-10.267 0 5.135 5.135 0 0 1 5.134-5.136m0 1.803a3.333 3.333 0 1 0 0 6.666 3.333 3.333 0 0 0 0-6.666m5.336-3.205a1.2 1.2 0 1 1-.001 2.4 1.2 1.2 0 0 1 .001-2.399" fill="#2B2B2B"/></svg>